inDegrees=no
num_controls=7
num_derivatives=13
num_iterations=113
num_multipliers=7
num_parameters=0
num_slacks=7
num_states=26
objective=0.448415
objective_accelerations=0.049124
objective_balance=0.007455
objective_effort=0.036406
objective_height=0.350490
objective_ligament=0.004940
solver_duration=1660.268838
status=Solve_Succeeded
success=true
DataType=double
version=3
OpenSimVersion=4.5
endheader
time	/jointset/ground_pelvis/pelvis_tilt/value	/jointset/ground_pelvis/pelvis_tx/value	/jointset/ground_pelvis/pelvis_ty/value	/jointset/hip_l/hip_flexion_l/value	/jointset/hip_l/hip_adduction_l/value	/jointset/hip_l/hip_rotation_l/value	/jointset/back/lumbar_extension/value	/jointset/patellofemoral_l/patellar_flexion_l/value	/jointset/knee_l/knee_flexion_l/value	/jointset/knee_l/knee_adduction_l/value	/jointset/knee_l/knee_rotation_l/value	/jointset/ankle_l/ankle_angle_l/value	/jointset/subtalar_l/subtalar_angle_l/value	/jointset/ground_pelvis/pelvis_tilt/speed	/jointset/ground_pelvis/pelvis_tx/speed	/jointset/ground_pelvis/pelvis_ty/speed	/jointset/hip_l/hip_flexion_l/speed	/jointset/hip_l/hip_adduction_l/speed	/jointset/hip_l/hip_rotation_l/speed	/jointset/back/lumbar_extension/speed	/jointset/patellofemoral_l/patellar_flexion_l/speed	/jointset/knee_l/knee_flexion_l/speed	/jointset/knee_l/knee_adduction_l/speed	/jointset/knee_l/knee_rotation_l/speed	/jointset/ankle_l/ankle_angle_l/speed	/jointset/subtalar_l/subtalar_angle_l/speed	/forceset/tau_hip_flexion_l	/forceset/tau_hip_adduction_l	/forceset/tau_hip_rotation_l	/forceset/tau_knee_flexion_l	/forceset/tau_ankle_angle_l	/forceset/tau_subtalar_angle_l	/forceset/tau_lumbar_extension	lambda_cid13_p0	lambda_cid13_p1	lambda_cid13_p2	lambda_cid13_p3	lambda_cid13_p4	lambda_cid13_p5	lambda_cid14_p0	/jointset/ground_pelvis/pelvis_tilt/accel	/jointset/ground_pelvis/pelvis_tx/accel	/jointset/ground_pelvis/pelvis_ty/accel	/jointset/hip_l/hip_flexion_l/accel	/jointset/hip_l/hip_adduction_l/accel	/jointset/hip_l/hip_rotation_l/accel	/jointset/back/lumbar_extension/accel	/jointset/patellofemoral_l/patellar_flexion_l/accel	/jointset/knee_l/knee_flexion_l/accel	/jointset/knee_l/knee_adduction_l/accel	/jointset/knee_l/knee_rotation_l/accel	/jointset/ankle_l/ankle_angle_l/accel	/jointset/subtalar_l/subtalar_angle_l/accel	gamma_cid13_p0	gamma_cid13_p1	gamma_cid13_p2	gamma_cid13_p3	gamma_cid13_p4	gamma_cid13_p5	gamma_cid14_p0
1	-0.6539435840103465	-0.1288627408399764	0.5966465041300187	1.951161959385258	-0.2955116655369467	0.1371785334529257	-0.4363268820793054	1.200544377367218	1.200544377366477	-0.1745269547074611	0.174531083310506	0.09892262880080566	-0.02747007496962714	-0.008715454339679825	0.0008047468452757107	-0.002575118033208296	0.01332771029005469	0.0006218582937635184	0.002700962203310729	0.0001159206289138047	0.007015287271271327	0.007015287271271368	3.18631484643674e-08	-1.233778260900796e-07	0.00294265381250432	0.001212971901363415	-0.4400115736272145	0.002991805117664841	-0.01814122905720881	-0.2525726279595268	0.1369631974289039	0.02842542683209726	0.3539676468022217	-2.431043229333336	-11.85962581207292	1.419933513042577	7.592660983253563	-729.0733812733222	-44.44375429812329	-0.7928818123648989	1.837793433533993	0.2665767749177053	1.704691155383631	-6.308401720075374	-0.3810231031239376	-1.735409432290099	-0.01769572728098783	-4.697326106279501	-4.697326106279734	-0.04084226287672252	0.01299860838063408	-0.50553749396325	-0.4637766934580057	1.473302474132029e-09	2.719271887642119e-09	-4.23172132352675e-09	-2.209475445360936e-09	1.950375195805532e-09	-1.319759990008086e-09	8.738724820839636e-10
1.01	-0.6539395059037627	-0.1288414258018439	0.5967058601717825	1.950980746468839	-0.2955236343948737	0.1371178850916397	-0.4363259085306588	1.200379939324402	1.200379939324269	-0.1745268765285984	0.1745310843876734	0.09892697042819058	-0.02748014982595946	0.00953494232184662	0.003458826400848092	0.01444271684097715	-0.04956485486682729	-0.003014126491816134	-0.01482495189389787	7.126701759119484e-05	-0.03989634382250878	-0.03989634382250853	1.220950791977871e-05	4.382400490121746e-07	-0.002077048492243412	-0.003226863251968019	-0.4398366693656168	0.00305387464204822	-0.01814918640291874	-0.2525057993709633	0.1369397998512273	0.02843016634400631	0.3538411931683929	-2.426053213073519	-11.86372292000508	1.42191739039529	7.572587353489215	-728.8844446914477	-44.44503791130557	-0.7958829351429821	1.819242404824309	0.2649086914858136	1.699787227614545	-6.278868597401435	-0.3546633138689455	-1.760334341170389	0.001021509492478537	-4.687097749585585	-4.68709774958541	0.02173678785044259	-0.006406036504655515	-0.5005941848548972	-0.4339270049424268	-2.581660197057042e-09	-5.228750375697832e-09	2.422956876255218e-08	1.47608203914944e-09	-4.901169752771658e-09	2.198698896827763e-08	-5.235921956784727e-09
1.02	-0.653752807906092	-0.128793552939034	0.5969352860771238	1.950170770964071	-0.2955719185301754	0.1368821472008355	-0.4363256071806122	1.199746581742916	1.199746581743392	-0.1745267787713478	0.1745310928860203	0.09888103351530311	-0.02753459104955943	0.02780852387786761	0.006116311780774432	0.0314388546823034	-0.112424807379982	-0.00664119718115453	-0.03231694370047244	-1.851909171526813e-05	-0.08676862046262206	-0.0867686204626207	3.947540546466377e-06	1.360858099820325e-06	-0.007113054241965762	-0.007660301552167998	-0.4396617651040173	0.003115944166432635	-0.01815714374863121	-0.2524389707824001	0.1369164022735505	0.02843490585591647	0.3537147395345658	-2.427205702168528	-11.86667637092362	1.423641193871525	7.572384467452142	-728.7774787544297	-44.41346788368946	-0.8074498256194907	1.842430412432902	0.2672579397884977	1.700351748811794	-6.301879191329919	-0.3792402838756866	-1.728624974163292	-0.02672222687775129	-4.689455215546135	-4.689455215546188	-0.04493018530564803	0.01307080841577556	-0.508798182958172	-0.4624973228317145	-6.239360855912587e-09	-1.326793866052933e-08	5.048419731571052e-08	4.442419697406088e-09	-1.121094808089e-08	4.315723716150797e-08	-1.107365961479266e-08
1.03	-0.6533832136357912	-0.1287190464202898	0.5973345293300518	1.948732371289719	-0.2956563714696406	0.1364716765558386	-0.436326280969469	1.198644737934941	1.19864473793501	-0.1745268370861731	0.1745311101214009	0.0987846385418938	-0.02763327255291807	0.04611867342618067	0.008789718353542166	0.04840268107882353	-0.1752485691155973	-0.0102415578298244	-0.04977149563295232	-0.0001089411039814984	-0.1335895225623293	-0.1335895225623293	-1.368019587512768e-05	1.987228796107406e-06	-0.01217004634557484	-0.01206800550873453	-0.4393962104004194	0.003232978005808752	-0.01818754697699837	-0.2522378627805447	0.1368694015956623	0.02855700499078991	0.3535932134276534	-2.422743150746857	-11.92605727377046	1.4394725223373	7.51314280782147	-728.5418791544731	-44.47247694982028	-0.8278197537074181	1.82655753427013	0.2680924720633865	1.69332732015457	-6.271642494152702	-0.3492674772219665	-1.753030965413428	0.0008924479570165149	-4.676811504596771	-4.676811504596951	0.0201042254705617	-0.006474918143637467	-0.5047646015843356	-0.4287136303806475	-9.893007820764724e-09	-2.130805721088626e-08	7.671630891445129e-08	7.401418377843816e-09	-1.751519817818732e-08	6.430568432652344e-08	-1.690862118319996e-08
